<svg width="36" height="36" viewBox="0 0 36 36" fill="none" xmlns="http://www.w3.org/2000/svg">
<path d="M34.1834 12.5165C36.2667 10.4331 35.3167 7.9998 34.1834 6.81647L29.1834 1.81647C27.0834 -0.266866 24.6667 0.683134 23.4834 1.81647L20.65 4.66647H16.3334C13.1667 4.66647 11.3334 6.33313 10.4 8.2498L3.00004 15.6498V22.3165L1.81671 23.4831C-0.266622 25.5831 0.683378 27.9998 1.81671 29.1831L6.81671 34.1831C7.71671 35.0831 8.68338 35.4165 9.60004 35.4165C10.7834 35.4165 11.8667 34.8331 12.5167 34.1831L17.0167 29.6665H23C25.8334 29.6665 27.2667 27.8998 27.7834 26.1665C29.6667 25.6665 30.7 24.2331 31.1167 22.8331C33.7 22.1665 34.6667 19.7165 34.6667 17.9998V12.9998H33.6834L34.1834 12.5165ZM31.3334 17.9998C31.3334 18.7498 31.0167 19.6665 29.6667 19.6665H28V21.3331C28 22.0831 27.6834 22.9998 26.3334 22.9998H24.6667V24.6665C24.6667 25.4165 24.35 26.3331 23 26.3331H15.65L10.1834 31.7998C9.66671 32.2831 9.36671 31.9998 9.18338 31.8165L4.20004 26.8498C3.71671 26.3331 4.00004 26.0331 4.18338 25.8498L6.33338 23.6831V17.0165L9.66671 13.6831V16.3331C9.66671 18.3498 11 21.3331 14.6667 21.3331C18.3334 21.3331 19.6667 18.3498 19.6667 16.3331H31.3334V17.9998ZM31.8167 10.1498L28.9834 12.9998H16.3334V16.3331C16.3334 17.0831 16.0167 17.9998 14.6667 17.9998C13.3167 17.9998 13 17.0831 13 16.3331V11.3331C13 10.5665 13.2834 7.9998 16.3334 7.9998H22.0167L25.8167 4.1998C26.3334 3.71647 26.6334 3.9998 26.8167 4.18313L31.8 9.1498C32.2834 9.66647 32 9.96647 31.8167 10.1498Z" fill="#FDFDFD"/>
</svg>
