<svg width="21" height="20" viewBox="0 0 21 20" fill="none" xmlns="http://www.w3.org/2000/svg">
<path d="M15 1.5V5.303C16.2376 6.01912 17.1799 7.15245 17.658 8.5H18.999C19.2642 8.5 19.5186 8.60536 19.7061 8.79289C19.8937 8.98043 19.999 9.23478 19.999 9.5V11.5C19.999 11.7652 19.8937 12.0196 19.7061 12.2071C19.5186 12.3946 19.2642 12.5 18.999 12.5H17.657C17.321 13.45 16.75 14.3 15.999 14.973V17C15.999 17.3978 15.841 17.7794 15.5597 18.0607C15.2784 18.342 14.8968 18.5 14.499 18.5C14.1012 18.5 13.7197 18.342 13.4384 18.0607C13.157 17.7794 12.999 17.3978 12.999 17V16.417C12.6686 16.4724 12.3341 16.5001 11.999 16.5H7.99901C7.66396 16.5001 7.32947 16.4724 6.99901 16.417V17C6.99901 17.3978 6.84098 17.7794 6.55967 18.0607C6.27837 18.342 5.89684 18.5 5.49901 18.5C5.10119 18.5 4.71966 18.342 4.43835 18.0607C4.15705 17.7794 3.99901 17.3978 3.99901 17V14.973C3.09298 14.163 2.45429 13.0969 2.1675 11.9159C1.8807 10.7348 1.95933 9.49457 2.39296 8.35922C2.82659 7.22387 3.59478 6.24697 4.59585 5.55783C5.59692 4.86869 6.78367 4.4998 7.99901 4.5H10.499L14.999 1.5H15Z" stroke="#FDFDFD" stroke-width="2" stroke-linecap="round" stroke-linejoin="round"/>
</svg>
