<svg id="visual" viewBox="0 0 900 600" width="900" height="600" xmlns="http://www.w3.org/2000/svg" xmlns:xlink="http://www.w3.org/1999/xlink" version="1.1"><rect x="0" y="0" width="900" height="600" fill="#F5F5F5"></rect><path d="M0 441L13.7 438.3C27.3 435.7 54.7 430.3 82 406.8C109.3 383.3 136.7 341.7 163.8 333.8C191 326 218 352 245.2 370.3C272.3 388.7 299.7 399.3 327 408.2C354.3 417 381.7 424 409 414.5C436.3 405 463.7 379 491 371.2C518.3 363.3 545.7 373.7 573 373.5C600.3 373.3 627.7 362.7 654.8 362.2C682 361.7 709 371.3 736.2 384.5C763.3 397.7 790.7 414.3 818 409.7C845.3 405 872.7 379 886.3 366L900 353L900 601L886.3 601C872.7 601 845.3 601 818 601C790.7 601 763.3 601 736.2 601C709 601 682 601 654.8 601C627.7 601 600.3 601 573 601C545.7 601 518.3 601 491 601C463.7 601 436.3 601 409 601C381.7 601 354.3 601 327 601C299.7 601 272.3 601 245.2 601C218 601 191 601 163.8 601C136.7 601 109.3 601 82 601C54.7 601 27.3 601 13.7 601L0 601Z" fill="#c62368"></path><path d="M0 425L13.7 413.8C27.3 402.7 54.7 380.3 82 368.5C109.3 356.7 136.7 355.3 163.8 348.3C191 341.3 218 328.7 245.2 345.8C272.3 363 299.7 410 327 423.5C354.3 437 381.7 417 409 392.5C436.3 368 463.7 339 491 338.8C518.3 338.7 545.7 367.3 573 389.7C600.3 412 627.7 428 654.8 430.8C682 433.7 709 423.3 736.2 413.2C763.3 403 790.7 393 818 386.8C845.3 380.7 872.7 378.3 886.3 377.2L900 376L900 601L886.3 601C872.7 601 845.3 601 818 601C790.7 601 763.3 601 736.2 601C709 601 682 601 654.8 601C627.7 601 600.3 601 573 601C545.7 601 518.3 601 491 601C463.7 601 436.3 601 409 601C381.7 601 354.3 601 327 601C299.7 601 272.3 601 245.2 601C218 601 191 601 163.8 601C136.7 601 109.3 601 82 601C54.7 601 27.3 601 13.7 601L0 601Z" fill="#cd2d68"></path><path d="M0 403L13.7 405.5C27.3 408 54.7 413 82 403.2C109.3 393.3 136.7 368.7 163.8 368C191 367.3 218 390.7 245.2 402C272.3 413.3 299.7 412.7 327 408.8C354.3 405 381.7 398 409 404.3C436.3 410.7 463.7 430.3 491 426.3C518.3 422.3 545.7 394.7 573 393.7C600.3 392.7 627.7 418.3 654.8 426.2C682 434 709 424 736.2 407.7C763.3 391.3 790.7 368.7 818 366.5C845.3 364.3 872.7 382.7 886.3 391.8L900 401L900 601L886.3 601C872.7 601 845.3 601 818 601C790.7 601 763.3 601 736.2 601C709 601 682 601 654.8 601C627.7 601 600.3 601 573 601C545.7 601 518.3 601 491 601C463.7 601 436.3 601 409 601C381.7 601 354.3 601 327 601C299.7 601 272.3 601 245.2 601C218 601 191 601 163.8 601C136.7 601 109.3 601 82 601C54.7 601 27.3 601 13.7 601L0 601Z" fill="#d43667"></path><path d="M0 433L13.7 434.5C27.3 436 54.7 439 82 430C109.3 421 136.7 400 163.8 396.3C191 392.7 218 406.3 245.2 424.3C272.3 442.3 299.7 464.7 327 472.3C354.3 480 381.7 473 409 465.5C436.3 458 463.7 450 491 453.5C518.3 457 545.7 472 573 479.7C600.3 487.3 627.7 487.7 654.8 485.8C682 484 709 480 736.2 464.7C763.3 449.3 790.7 422.7 818 416C845.3 409.3 872.7 422.7 886.3 429.3L900 436L900 601L886.3 601C872.7 601 845.3 601 818 601C790.7 601 763.3 601 736.2 601C709 601 682 601 654.8 601C627.7 601 600.3 601 573 601C545.7 601 518.3 601 491 601C463.7 601 436.3 601 409 601C381.7 601 354.3 601 327 601C299.7 601 272.3 601 245.2 601C218 601 191 601 163.8 601C136.7 601 109.3 601 82 601C54.7 601 27.3 601 13.7 601L0 601Z" fill="#da3f67"></path><path d="M0 454L13.7 445.7C27.3 437.3 54.7 420.7 82 422.2C109.3 423.7 136.7 443.3 163.8 440.8C191 438.3 218 413.7 245.2 407.5C272.3 401.3 299.7 413.7 327 431.5C354.3 449.3 381.7 472.7 409 480.3C436.3 488 463.7 480 491 466.8C518.3 453.7 545.7 435.3 573 424.3C600.3 413.3 627.7 409.7 654.8 414.3C682 419 709 432 736.2 436.7C763.3 441.3 790.7 437.7 818 438.3C845.3 439 872.7 444 886.3 446.5L900 449L900 601L886.3 601C872.7 601 845.3 601 818 601C790.7 601 763.3 601 736.2 601C709 601 682 601 654.8 601C627.7 601 600.3 601 573 601C545.7 601 518.3 601 491 601C463.7 601 436.3 601 409 601C381.7 601 354.3 601 327 601C299.7 601 272.3 601 245.2 601C218 601 191 601 163.8 601C136.7 601 109.3 601 82 601C54.7 601 27.3 601 13.7 601L0 601Z" fill="#e04867"></path><path d="M0 493L13.7 496.5C27.3 500 54.7 507 82 510.8C109.3 514.7 136.7 515.3 163.8 508.3C191 501.3 218 486.7 245.2 481.2C272.3 475.7 299.7 479.3 327 484.8C354.3 490.3 381.7 497.7 409 497.7C436.3 497.7 463.7 490.3 491 485.7C518.3 481 545.7 479 573 476.2C600.3 473.3 627.7 469.7 654.8 462.3C682 455 709 444 736.2 449.8C763.3 455.7 790.7 478.3 818 484.8C845.3 491.3 872.7 481.7 886.3 476.8L900 472L900 601L886.3 601C872.7 601 845.3 601 818 601C790.7 601 763.3 601 736.2 601C709 601 682 601 654.8 601C627.7 601 600.3 601 573 601C545.7 601 518.3 601 491 601C463.7 601 436.3 601 409 601C381.7 601 354.3 601 327 601C299.7 601 272.3 601 245.2 601C218 601 191 601 163.8 601C136.7 601 109.3 601 82 601C54.7 601 27.3 601 13.7 601L0 601Z" fill="#e65067"></path><path d="M0 531L13.7 520.2C27.3 509.3 54.7 487.7 82 481C109.3 474.3 136.7 482.7 163.8 487.7C191 492.7 218 494.3 245.2 489.3C272.3 484.3 299.7 472.7 327 466C354.3 459.3 381.7 457.7 409 466.7C436.3 475.7 463.7 495.3 491 504.5C518.3 513.7 545.7 512.3 573 506.8C600.3 501.3 627.7 491.7 654.8 493.3C682 495 709 508 736.2 505.3C763.3 502.7 790.7 484.3 818 480.7C845.3 477 872.7 488 886.3 493.5L900 499L900 601L886.3 601C872.7 601 845.3 601 818 601C790.7 601 763.3 601 736.2 601C709 601 682 601 654.8 601C627.7 601 600.3 601 573 601C545.7 601 518.3 601 491 601C463.7 601 436.3 601 409 601C381.7 601 354.3 601 327 601C299.7 601 272.3 601 245.2 601C218 601 191 601 163.8 601C136.7 601 109.3 601 82 601C54.7 601 27.3 601 13.7 601L0 601Z" fill="#eb5967"></path><path d="M0 520L13.7 516.8C27.3 513.7 54.7 507.3 82 502.5C109.3 497.7 136.7 494.3 163.8 497C191 499.7 218 508.3 245.2 511.3C272.3 514.3 299.7 511.7 327 511C354.3 510.3 381.7 511.7 409 513.8C436.3 516 463.7 519 491 515.5C518.3 512 545.7 502 573 500C600.3 498 627.7 504 654.8 505.5C682 507 709 504 736.2 507C763.3 510 790.7 519 818 524C845.3 529 872.7 530 886.3 530.5L900 531L900 601L886.3 601C872.7 601 845.3 601 818 601C790.7 601 763.3 601 736.2 601C709 601 682 601 654.8 601C627.7 601 600.3 601 573 601C545.7 601 518.3 601 491 601C463.7 601 436.3 601 409 601C381.7 601 354.3 601 327 601C299.7 601 272.3 601 245.2 601C218 601 191 601 163.8 601C136.7 601 109.3 601 82 601C54.7 601 27.3 601 13.7 601L0 601Z" fill="#f06167"></path><path d="M0 552L13.7 546C27.3 540 54.7 528 82 523.3C109.3 518.7 136.7 521.3 163.8 526.5C191 531.7 218 539.3 245.2 537.8C272.3 536.3 299.7 525.7 327 528.2C354.3 530.7 381.7 546.3 409 550.7C436.3 555 463.7 548 491 546.7C518.3 545.3 545.7 549.7 573 545.5C600.3 541.3 627.7 528.7 654.8 523.7C682 518.7 709 521.3 736.2 527.7C763.3 534 790.7 544 818 547.2C845.3 550.3 872.7 546.7 886.3 544.8L900 543L900 601L886.3 601C872.7 601 845.3 601 818 601C790.7 601 763.3 601 736.2 601C709 601 682 601 654.8 601C627.7 601 600.3 601 573 601C545.7 601 518.3 601 491 601C463.7 601 436.3 601 409 601C381.7 601 354.3 601 327 601C299.7 601 272.3 601 245.2 601C218 601 191 601 163.8 601C136.7 601 109.3 601 82 601C54.7 601 27.3 601 13.7 601L0 601Z" fill="#f56a67"></path><path d="M0 561L13.7 559.5C27.3 558 54.7 555 82 556C109.3 557 136.7 562 163.8 566C191 570 218 573 245.2 570.5C272.3 568 299.7 560 327 558.7C354.3 557.3 381.7 562.7 409 562C436.3 561.3 463.7 554.7 491 556.2C518.3 557.7 545.7 567.3 573 569.8C600.3 572.3 627.7 567.7 654.8 562.5C682 557.3 709 551.7 736.2 551.3C763.3 551 790.7 556 818 558.7C845.3 561.3 872.7 561.7 886.3 561.8L900 562L900 601L886.3 601C872.7 601 845.3 601 818 601C790.7 601 763.3 601 736.2 601C709 601 682 601 654.8 601C627.7 601 600.3 601 573 601C545.7 601 518.3 601 491 601C463.7 601 436.3 601 409 601C381.7 601 354.3 601 327 601C299.7 601 272.3 601 245.2 601C218 601 191 601 163.8 601C136.7 601 109.3 601 82 601C54.7 601 27.3 601 13.7 601L0 601Z" fill="#fa7268"></path></svg>